#!OML:ASF F:\VICON\USERDATA\INSTALL\rory3\rory3.ASF
:FULLY-SPECIFIED
:DEGREES
555
root 10.8328 17.8854 11.8079 0.209219 -28.742 2.85048
lowerback 11.7864 -2.2051 -0.723687
upperback 0.799249 -3.00321 0.510515
thorax -5.7027 -1.45516 1.43685
lowerneck -8.71736 -7.59408 -10.4715
upperneck 38.3226 -13.3209 8.7111
head 16.6629 -6.29435 3.35345
rclavicle -6.05796e-014 4.77083e-015
rhumerus -40.9603 27.0534 -101.557
rradius 94.5026
rwrist -10.4477
rhand -23.041 14.2998
rfingers 7.12502
rthumb 3.40349 -15.6528
lclavicle -6.05796e-014 4.77083e-015
lhumerus -40.892 -28.3712 102.14
lradius 93.4314
lwrist 17.5028
lhand -20.2316 32.4983
lfingers 7.12502
lthumb 6.1162 62.39
rfemur -18.2086 -20.9303 18.7036
rtibia 50.5686
rfoot -19.2152 12.733
rtoes -18.3138
lfemur -4.10698 -5.33754 -21.0117
ltibia 19.0576
lfoot -13.3207 -15.4197
ltoes -3.05641
556
root 10.821 17.9163 11.846 0.122945 -29.3772 2.93508
lowerback 11.8125 -2.32149 -0.748397
upperback 0.848176 -3.16891 0.38441
thorax -5.6672 -1.53819 1.34541
lowerneck -8.73897 -7.62903 -10.8827
upperneck 38.246 -13.4714 9.1667
head 16.7442 -6.3694 3.59575
rclavicle -5.97845e-014 6.36111e-015
rhumerus -40.9503 27.1163 -101.729
rradius 94.4567
rwrist -10.4152
rhand -23.213 14.4205
rfingers 7.12502
rthumb 3.23739 -15.5347
lclavicle -5.97845e-014 6.36111e-015
lhumerus -40.8119 -28.5872 101.926
lradius 93.4837
lwrist 17.1415
lhand -19.8628 32.6186
lfingers 7.12502
lthumb 6.47225 62.4997
rfemur -18.7064 -22.0349 18.55
rtibia 51.0557
rfoot -19.2225 11.3944
rtoes -15.9174
lfemur -3.70178 -5.48902 -21.1497
ltibia 18.646
lfoot -12.8233 -15.035
ltoes 0.509516
557
root 10.8113 17.9207 11.8839 0.0643017 -30.0858 2.97196
lowerback 11.885 -2.39507 -0.717644
upperback 0.823085 -3.26932 0.282133
thorax -5.73942 -1.58849 1.2419
lowerneck -8.5756 -7.65451 -11.3043
upperneck 38.1418 -13.6276 9.63618
head 16.7702 -6.45569 3.85262
rclavicle 5.41688e-014 -5.96354e-015
rhumerus -41.085 27.0675 -101.898
rradius 94.4076
rwrist -10.3657
rhand -23.1523 14.5893
rfingers 7.12502
rthumb 3.29605 -15.365
lclavicle 5.41688e-014 -5.96354e-015
lhumerus -40.9025 -28.8436 101.827
lradius 93.5823
lwrist 16.9654
lhand -19.6106 32.7354
lfingers 7.12502
lthumb 6.71575 62.6089
rfemur -19.2954 -23.0023 18.4596
rtibia 51.48
rfoot -19.3753 9.70866
rtoes -15.0257
lfemur -3.20511 -5.38907 -21.2847
ltibia 18.2038
lfoot -12.6142 -14.4178
ltoes 1.94422
558
root 10.7995 17.9151 11.9211 0.0999039 -30.8885 2.94453
lowerback 11.8624 -2.45845 -0.701805
upperback 0.77649 -3.35292 0.258485
thorax -5.77644 -1.62964 1.22235
lowerneck -8.48954 -7.65511 -10.6538
upperneck 37.9145 -13.4361 8.82662
head 16.4342 -6.38414 3.40641
rclavicle -9.77524e-014 3.29983e-014
rhumerus -41.2583 27.1729 -102.054
rradius 94.3669
rwrist -10.5005
rhand -23.2961 14.347
rfingers 7.12502
rthumb 3.15716 -15.6094
lclavicle -9.77524e-014 3.29983e-014
lhumerus -40.8815 -29.0487 101.738
lradius 93.5581
lwrist 16.8594
lhand -19.4701 32.8884
lfingers 7.12502
lthumb 6.85137 62.7575
rfemur -20.0075 -23.7989 18.4955
rtibia 51.8387
rfoot -19.4651 7.87203
rtoes -13.7815
lfemur -2.71101 -5.07992 -21.3455
ltibia 17.6795
lfoot -12.509 -13.623
ltoes 0.427209
559
root 10.7818 17.9233 11.9646 0.120437 -31.7744 3.01643
lowerback 11.7051 -2.51605 -0.807185
upperback 0.755333 -3.44377 0.239129
thorax -5.70388 -1.67283 1.2685
lowerneck -8.33406 -7.68402 -11.0396
upperneck 37.792 -13.448 8.92882
head 16.3826 -6.4446 3.51658
rclavicle 1.81888e-014 1.03368e-014
rhumerus -41.4737 27.4715 -102.211
rradius 94.4408
rwrist -10.6858
rhand -23.6091 14.1831
rfingers 7.12502
rthumb 2.85486 -15.7775
lclavicle 1.81888e-014 1.03368e-014
lhumerus -40.9114 -29.0451 101.76
lradius 93.4827
lwrist 16.4161
lhand -18.9922 32.8618
lfingers 7.12502
lthumb 7.31267 62.7155
rfemur -20.6528 -24.3822 18.4282
rtibia 52.0567
rfoot -19.538 6.18166
rtoes -11.2202
lfemur -2.22696 -5.14971 -21.5179
ltibia 17.1436
lfoot -12.2112 -12.4459
ltoes 3.89838
560
root 10.762 17.9301 12.0109 0.0879136 -32.672 3.01517
lowerback 11.5632 -2.58322 -0.819447
upperback 0.807283 -3.53567 0.206951
thorax -5.56907 -1.72032 1.2473
lowerneck -8.42264 -7.61682 -11.0833
upperneck 37.7609 -13.3356 8.91957
head 16.3725 -6.40818 3.53502
rclavicle 1.40143e-014 -1.98785e-016
rhumerus -41.6412 27.7838 -102.314
rradius 94.5284
rwrist -10.769
rhand -23.622 14.5292
rfingers 7.12502
rthumb 2.84246 -15.4316
lclavicle 1.40143e-014 -1.98785e-016
lhumerus -41.0338 -28.9076 101.808
lradius 93.5188
lwrist 15.9393
lhand -18.4936 32.8615
lfingers 7.12502
lthumb 7.79394 62.6978
rfemur -21.1254 -24.9609 18.3652
rtibia 52.0976
rfoot -19.5387 4.74848
rtoes -8.67952
lfemur -1.63678 -5.37027 -21.6966
ltibia 16.6535
lfoot -12.3894 -11.003
ltoes -2.87723
